<?xml version="1.0" encoding="UTF-8" standalone="no"?>
<!DOCTYPE svg PUBLIC "-//W3C//DTD SVG 1.1//EN" "http://www.w3.org/Graphics/SVG/1.1/DTD/svg11.dtd">
<svg width="100%" height="100%" viewBox="0 0 449 449" version="1.1" xmlns="http://www.w3.org/2000/svg" xmlns:xlink="http://www.w3.org/1999/xlink" xml:space="preserve" xmlns:serif="http://www.serif.com/" style="fill-rule:evenodd;clip-rule:evenodd;stroke-linejoin:round;stroke-miterlimit:2;">
    <g transform="matrix(1,0,0,1,-0.125,-31.825)">
        <path d="M224.3,141C224.2,141 224.1,141 224,141C160.913,141 109,192.913 109,256C109,318.974 160.726,370.836 223.7,371C223.8,371 223.9,371 224,371C287.087,371 339,319.087 339,256C339,193.026 287.274,141.164 224.3,141ZM223.7,181.4C223.8,181.4 223.9,181.399 224,181.399C264.925,181.399 298.601,215.075 298.601,256C298.601,296.811 265.111,330.436 224.3,330.6C224.2,330.6 224.1,330.601 224,330.601C183.075,330.601 149.399,296.925 149.399,256C149.399,215.189 182.889,181.564 223.7,181.4ZM317.1,136.3C317.1,121.598 329.198,109.5 343.9,109.5C358.602,109.5 370.7,121.598 370.7,136.3C370.7,151.002 358.602,163.1 343.9,163.1C329.198,163.1 317.1,151.002 317.1,136.3ZM446.8,163.5C445.1,127.6 436.9,95.8 410.6,69.6C384.4,43.4 352.6,35.2 316.7,33.4C279.7,31.3 168.8,31.3 131.8,33.4C96,35.1 64.2,43.3 37.9,69.5C11.6,95.7 3.5,127.5 1.7,163.4C-0.4,200.4 -0.4,311.3 1.7,348.3C3.4,384.2 11.6,416 37.9,442.2C64.2,468.4 95.9,476.6 131.8,478.4C168.8,480.5 279.7,480.5 316.7,478.4C352.6,476.7 384.4,468.5 410.6,442.2C436.8,416 445,384.2 446.8,348.3C448.9,311.3 448.9,200.5 446.8,163.5ZM399,388C391.2,407.6 376.1,422.7 356.4,430.6C326.9,442.3 256.9,439.6 224.3,439.6C191.7,439.6 121.6,442.2 92.2,430.6C72.6,422.8 57.5,407.7 49.6,388C37.9,358.5 40.6,288.5 40.6,255.9C40.6,223.3 38,153.2 49.6,123.8C57.4,104.2 72.5,89.1 92.2,81.2C121.7,69.5 191.7,72.2 224.3,72.2C256.9,72.2 327,69.6 356.4,81.2C376,89 391.1,104.1 399,123.8C410.7,153.3 408,223.3 408,255.9C408,288.5 410.7,358.6 399,388Z" style="fill:rgb(161,140,127);fill-rule:nonzero;"/>
    </g>
</svg>
